# xmcd
#
# Track frame offsets:
#	150
#	17778
#	34101
#	57987
#	78535
#	100307
#	117776
#	135799
#	154210
#	176447
#
# Disc length: 2607 seconds
#
# Revision: 1
# Processed by: cddbd v1.5.2PL0 Copyright (c) Steve Scherf et al.
# Submitted via: EZCDAudioConverter 8.0.2.1
#
DISCID=760a2d0a
DTITLE=Phạm Khánh Hưng - Đếm
DYEAR=2007
DGENRE=World Pop
TTITLE0=Đếm
TTITLE1=Muốn khóc hãy khóc đi em
TTITLE2=Thật khó nói lời chia tay
TTITLE3=Không thể quay lại với em
TTITLE4=Thật hay mơ
TTITLE5=Người vội ra đi
TTITLE6=Xa mặt cách lòng
TTITLE7=Yêu làm sao
TTITLE8=Còn đâu lời anh hứa
TTITLE9=Bạn tôi ơi! Cảm ơn bạn
EXTD=
EXTT0=
EXTT1=
EXTT2=
EXTT3=
EXTT4=
EXTT5=
EXTT6=
EXTT7=
EXTT8=
EXTT9=
PLAYORDER=
